<svg version="1.1" viewBox="0 0 256 256" xmlns="http://www.w3.org/2000/svg">
 <defs>
  <linearGradient id="linearGradient21" x1="44.021" x2="170.01" y1="128.63" y2="128.63" gradientTransform="rotate(2.6733,79.674,289.14)" gradientUnits="userSpaceOnUse">
   <stop stop-color="#ad46ff" offset="0"/>
   <stop stop-color="#51a2ff" offset="1"/>
  </linearGradient>
  <linearGradient id="linearGradient22" x1="174.13" x2="117.84" y1="32.56" y2="215.63" gradientUnits="userSpaceOnUse">
   <stop stop-color="#fff" offset="0"/>
   <stop stop-color="#fff" stop-opacity=".175" offset="1"/>
  </linearGradient>
 </defs>
 <rect width="256" height="256" rx="128" fill="#071329" stroke-width="30"/>
 <g transform="translate(-6.178 1.1244)">
  <path d="m160.88 106.74a15 15 0 0 0-7.1578 3.0073c-22.3 17.292-59.49 18.483-81.388 8.8992a15 15 0 0 0-19.757 7.7276 15 15 0 0 0 7.7277 19.755c32.779 14.346 78.51 13.14 111.8-12.674a15 15 0 0 0 2.6622-21.045 15 15 0 0 0-13.887-5.6695z" fill="url(#linearGradient21)" stop-color="#000000" stroke-linecap="round" style="paint-order:stroke fill markers"/>
  <path d="m154.05 34.902c-31.012 3.1464-55.229 14.405-71.189 31.861s-22.948 40.413-22.35 64.004c0.65249 25.726 17.784 45.848 32.852 60.789 15.068 14.942 29.951 24.844 29.951 24.844a15 15 0 0 0 20.805-4.1426 15 15 0 0 0-4.1426-20.805s-12.721-8.5368-25.49-21.199c-12.769-12.662-23.707-29.309-23.984-40.246-0.4414-17.404 4.3129-31.858 14.5-43 10.187-11.142 26.521-19.667 52.078-22.26a15 15 0 0 0 13.408-16.436 15 15 0 0 0-16.438-13.41z" fill="url(#linearGradient22)" stop-color="#000000" stroke-linecap="round" style="paint-order:stroke fill markers"/>
  <circle cx="201.5" cy="79.651" r="15.537" fill="#fff" fill-opacity=".74576" style="paint-order:markers stroke fill"/>
 </g>
</svg>
